<svg preserveAspectRatio="none" overflow="visible" style="display: block;" width="142" height="142" viewBox="0 0 142 142" fill="none" xmlns="http://www.w3.org/2000/svg">
<g id="Group 9">
<path id="Polygon 16" d="M71 12.1289L105.669 73.9435L36.331 73.9435L71 12.1289Z" fill="#FF7AB6"/>
<path id="Polygon 17" d="M41.5644 20.0161L102.496 56.2147L42.4475 90.8836L41.5644 20.0161Z" fill="#FF7AB6"/>
<path id="Polygon 18" d="M20.0162 41.5645L90.8837 42.4475L56.2147 102.496L20.0162 41.5645Z" fill="#FF7AB6"/>
<path id="Polygon 19" d="M12.0687 71L73.8833 36.331V105.669L12.0687 71Z" fill="#FF7AB6"/>
<path id="Polygon 20" d="M20.0161 100.436L56.2146 39.504L90.8836 99.5524L20.0161 100.436Z" fill="#FF7AB6"/>
<path id="Polygon 21" d="M41.5642 121.984L42.4473 51.1163L102.496 85.7853L41.5642 121.984Z" fill="#FF7AB6"/>
<path id="Polygon 22" d="M70.9999 129.871L36.3309 68.0564H105.669L70.9999 129.871Z" fill="#FF7AB6"/>
<path id="Polygon 23" d="M100.435 121.984L39.504 85.7853L99.5524 51.1163L100.435 121.984Z" fill="#FF7AB6"/>
<path id="Polygon 24" d="M121.984 100.435L51.1163 99.5524L85.7853 39.5039L121.984 100.435Z" fill="#FF7AB6"/>
<path id="Polygon 25" d="M129.811 71L67.9959 105.669L67.9959 36.331L129.811 71Z" fill="#FF7AB6"/>
<path id="Polygon 26" d="M121.984 41.5644L85.7853 102.496L51.1163 42.4475L121.984 41.5644Z" fill="#FF7AB6"/>
<path id="Polygon 27" d="M100.436 20.0162L99.5527 90.8837L39.5042 56.2147L100.436 20.0162Z" fill="#FF7AB6"/>
<circle id="Ellipse 11" cx="71" cy="71" r="29" fill="#FF7AB6"/>
</g>
</svg>
